<?xml version="1.0" encoding="utf-8"?>
<!-- Generator: Adobe Illustrator 21.1.0, SVG Export Plug-In . SVG Version: 6.00 Build 0)  -->
<svg version="1.1" id="Calque_1" xmlns="http://www.w3.org/2000/svg" xmlns:xlink="http://www.w3.org/1999/xlink" x="0px" y="0px"
	 viewBox="0 0 679.5 318" style="enable-background:new 0 0 679.5 318;" xml:space="preserve">
<style type="text/css">
	.st0{fill:#636363;}
	.st1{fill:#2D2D2D;}
	.st2{fill:none;stroke:#636363;stroke-miterlimit:10;}
</style>
<image style="overflow:visible;" width="512" height="512" xlink:href="Untitled-2-512.png"  transform="matrix(0.3438 0 0 0.3438 163.3934 -10.6094)">
</image>
<g>
	<g>
		<path class="st0" d="M4.6,167.4c7.7-1.6,18.6-2.5,29.1-2.5c16.2,0,26.7,3.1,34,9.9c5.9,5.4,9.2,13.7,9.2,23c0,16-9.8,26.6-22.1,31
			v0.5c9.1,3.2,14.5,11.9,17.2,24.5c3.8,16.9,6.6,28.6,9.1,33.3H65.4c-1.9-3.4-4.5-13.9-7.8-29c-3.5-16.7-9.8-23-23.5-23.6H19.8
			v52.6H4.6V167.4z M19.8,222.6h15.5c16.2,0,26.5-9.2,26.5-23c0-15.7-11-22.5-27-22.7c-7.3,0-12.5,0.7-15,1.4V222.6z"/>
		<path class="st0" d="M107.1,246.4c0.3,21.4,13.6,30.2,28.9,30.2c11,0,17.6-2,23.3-4.5l2.6,11.3c-5.4,2.5-14.6,5.4-28,5.4
			c-26,0-41.5-17.6-41.5-43.9s15-47,39.5-47c27.5,0,34.8,25,34.8,41c0,3.2-0.3,5.8-0.5,7.4H107.1z M152,235
			c0.2-10.1-4-25.7-21.3-25.7c-15.5,0-22.3,14.8-23.5,25.7H152z"/>
		<path class="st0" d="M258.6,159.3v105.3c0,7.7,0.2,16.6,0.7,22.5h-13.8l-0.7-15.1h-0.3c-4.7,9.7-15,17.1-28.7,17.1
			c-20.4,0-36.1-17.8-36.1-44.3c-0.2-29,17.2-46.8,37.8-46.8c12.9,0,21.6,6.3,25.4,13.3h0.3v-52H258.6z M243.3,235.4
			c0-2-0.2-4.7-0.7-6.7c-2.3-10.1-10.6-18.4-22.1-18.4c-15.9,0-25.3,14.4-25.3,33.7c0,17.6,8.4,32.2,24.9,32.2
			c10.3,0,19.7-7,22.5-18.9c0.5-2.2,0.7-4.3,0.7-6.8V235.4z"/>
		<path class="st0" d="M301.1,175.5c0.2,5.4-3.7,9.7-9.8,9.7c-5.4,0-9.2-4.3-9.2-9.7c0-5.6,4-9.9,9.6-9.9
			C297.5,165.6,301.1,169.9,301.1,175.5z M284.1,287.1v-87.1h15.3v87.1H284.1z"/>
		<path class="st0" d="M322.7,270.9c4.5,3.1,12.5,6.3,20.2,6.3c11.1,0,16.4-5.8,16.4-13c0-7.6-4.4-11.7-15.7-16
			c-15.2-5.6-22.3-14.2-22.3-24.7c0-14,11-25.6,29.1-25.6c8.5,0,16,2.5,20.7,5.4l-3.8,11.5c-3.3-2.2-9.4-5-17.2-5
			c-9.1,0-14.1,5.4-14.1,11.9c0,7.2,5.1,10.4,16,14.8c14.6,5.8,22.1,13.3,22.1,26.3c0,15.3-11.5,26.1-31.5,26.1
			c-9.2,0-17.8-2.3-23.7-5.9L322.7,270.9z"/>
	</g>
</g>
<g>
	<g>
		<path class="st0" d="M451.3,179.1h-35.7v-13.3h86.9v13.3h-35.9v108h-15.3V179.1z"/>
	</g>
</g>
<g>
	<g>
		<path class="st1" d="M615.3,227.4c0,41.8-24.6,63.9-54.5,63.9c-31,0-52.8-24.8-52.8-61.6c0-38.5,23.2-63.7,54.5-63.7
			C594.6,166,615.3,191.4,615.3,227.4z M524.2,229.4c0,25.9,13.6,49.1,37.5,49.1c24,0,37.6-22.9,37.6-50.4
			c0-24.1-12.2-49.3-37.5-49.3C536.7,178.8,524.2,202.8,524.2,229.4z"/>
	</g>
</g>
<g>
	<g>
		<path class="st0" d="M519.3,30.4c9.2-1.4,20.2-2.5,32.2-2.5c21.8,0,37.3,5.2,47.6,15.1c10.5,9.9,16.5,23.9,16.5,43.6
			c0,19.8-5.9,36-16.9,47.2c-11,11.3-29.1,17.5-51.9,17.5c-10.8,0-19.9-0.5-27.5-1.4V30.4z M534.5,137.6c3.8,0.7,9.4,0.9,15.3,0.9
			c32.4,0,50-18.7,50-51.5c0.2-28.6-15.5-46.8-47.6-46.8c-7.8,0-13.8,0.7-17.8,1.6V137.6z"/>
	</g>
</g>
<path class="st2" d="M648.9,314H426.4c-14.1,0-25.5-11.4-25.5-25.5V44.6c0-14.1,11.4-25.5,25.5-25.5h222.5
	c14.1,0,25.5,11.4,25.5,25.5v243.9C674.4,302.6,663,314,648.9,314z"/>
</svg>
